<svg height="60" viewBox="0 0 120 60" width="120" xmlns="http://www.w3.org/2000/svg" xmlns:xlink="http://www.w3.org/1999/xlink"><linearGradient id="a"><stop offset="0" stop-color="#656565"/><stop offset="1" stop-color="#010101"/></linearGradient><linearGradient id="b" gradientTransform="matrix(432 0 0 460.8 -333.8 -365102.22)" gradientUnits="userSpaceOnUse" x1=".804" x2=".977" xlink:href="#a" y1="792.24402" y2="792.24402"/><linearGradient id="c" gradientTransform="matrix(432 0 0 460.8 -333.8 -364871.81)" gradientUnits="userSpaceOnUse" x1=".804" x2=".977" xlink:href="#a" y1="791.83099" y2="791.83099"/><linearGradient id="d"><stop offset="0" stop-color="#9f1c20"/><stop offset="1" stop-color="#ed2224"/></linearGradient><linearGradient id="e" gradientTransform="matrix(432 0 0 -460.8 -333.8 365323.41)" gradientUnits="userSpaceOnUse" x1=".804" x2=".977" xlink:href="#d" y1="792.92401" y2="792.92401"/><linearGradient id="f" gradientTransform="matrix(432 0 0 -460.8 -333.8 365553.81)" gradientUnits="userSpaceOnUse" x1=".804" x2=".977" xlink:href="#d" y1="793.33698" y2="793.33698"/><linearGradient id="g" gradientTransform="matrix(432 0 0 -460.8 -333.8 365784.22)" gradientUnits="userSpaceOnUse" x1=".804" x2=".977" xlink:href="#d" y1="793.75" y2="793.75"/><g transform="translate(-1.426599)"><g transform="matrix(.32643068 0 0 .32643068 4.558277 35.222891)"><path d="m13.4-31s75 7.5 75 20v-30s0-12.5-75-20z" fill="url(#b)"/><path d="m13.4 9s75 7.5 75 20v-30s0-12.5-75-20z" fill="url(#c)"/><path d="m88.4-81v30s0 12.5-75 20v-30s75-7.5 75-20" fill="url(#e)"/><path d="m13.4-21s75-7.5 75-20v30s0 12.5-75 20z" fill="url(#f)"/><path d="m13.4 49v-30s75-7.5 75-20v30s0 12.5-75 20" fill="url(#g)"/></g><path d="m42.86618 39.882297c.355584-1.526932.66934-2.970196 1.00401-4.434376 1.192261.33467 2.300857.815758 3.472203.962177 1.171338.146418 2.384519.06275 3.555864-.06275.669342-.06275 1.129511-.585673 1.213174-1.317764.06278-.690256-.292835-1.213178-.878504-1.506015-.732089-.376502-1.485102-.669339-2.238105-1.024925-1.00401-.46017-2.028935-.857592-2.970197-1.422347-1.945264-1.150427-3.116609-2.823776-2.991109-5.187381.125498-2.384523 1.33868-4.078788 3.388529-5.166466 1.966186-1.045843 4.099707-1.275929 6.275064-1.024926 1.401429.167336 2.761024.60659 4.204283.962176-.439248 1.652431-.815753 3.074779-1.171338 4.434374-1.234094-.376503-2.40544-.753007-3.618623-.878509-.836675-.08367-1.757014 0-2.551854.251003-1.19226.376504-1.338681 1.694266-.292835 2.384523.73209.481087 1.610594.773923 2.426355 1.12951 1.066761.502005 2.196271.878508 3.17936 1.506014 3.99512 2.46819 3.765036 8.178494-.376497 10.416598-2.154445 1.150428-4.476213 1.422347-6.860733 1.213179-1.589687-.167334-3.179368-.502003-4.769047-1.234095zm45.243176.899424h-4.852709c-.125509-.439254-.251008-.815756-.397421-1.338679-1.213181 1.213178-2.614613 1.673349-4.204292 1.673349-2.447278 0-4.246128-1.296844-4.85271-3.493116-.627513-2.300855.355583-4.622627 2.426354-5.835803 1.694266-.983095 3.555866-1.21318 5.459302-1.359598.230084-.02091.439255-.02091.66934-.04183-.10458-.878508-.60659-1.275929-1.673351-1.359597-1.736101-.146418-3.346702.230086-5.020046 1.066761-.33467-1.171345-.648426-2.300855-1.024932-3.618618 1.338681-.376502 2.593699-.899426 3.911457-1.045844 1.610602-.167334 3.283946-.167334 4.873633.104581 2.65644.481088 4.287955 2.614608 4.413455 5.501135.08367 2.008018.06278 4.036954.06278 6.044974.0209 1.213177.0209 2.719191.209171 3.702284zm-5.542973-6.902564c-1.024925-.125501-1.92435.04184-2.781939.522921-.585677.334671-.92034.899425-.773926 1.547848.104591.418337.376505.941259.73209 1.150427 1.087675.627507 2.614612-.167334 2.781947-1.422346.104581-.585673.04179-1.171344.04179-1.79885zm31.354367 6.881647h-4.8527c-.12551-.439254-.251-.815756-.39742-1.338679-1.21317 1.213178-2.6146 1.673349-4.20429 1.673349-2.44727 0-4.24612-1.296844-4.852713-3.493116-.62751-2.300855.35559-4.622627 2.426363-5.835804 1.69425-.983094 3.55585-1.213179 5.45929-1.359597.23008-.02091.43926-.02091.66934-.04184-.10462-.878509-.60659-1.27593-1.67335-1.359597-1.73609-.146419-3.3467.230085-5.02004 1.066761-.33467-1.171345-.64842-2.300855-1.02493-3.618618 1.33869-.376503 2.5937-.899425 3.91146-1.045843 1.6106-.167336 3.28395-.167336 4.87361.104579 2.65645.481088 4.28797 2.614608 4.41348 5.501135.0836 2.008019.0627 4.036954.0627 6.044974 0 1.234095.0209 2.719192.20916 3.702285zm-5.54296-6.902565c-1.02492-.125501-1.92434.04184-2.78195.522922-.58566.334671-.92033.899425-.77391 1.547848.10462.418338.3765.94126.73209 1.150428 1.08768.627505 2.6146-.167336 2.78193-1.422347.10462-.564756.0418-1.171344.0418-1.798851zm-37.022844-4.036954c-2.008021-.39742-3.890536-.773923-5.291965 1.108593-.878503 1.192263-.878503 3.304865 0 4.455293 1.422344 1.903434 3.38853 1.52693 5.459301 1.171345.188248 1.234095.543841 4.036954.543841 4.036954s-.0209 0-.251007.08367c-3.765037 1.024927-8.178491.292836-10.165591-2.028936-2.049856-2.384522-2.300855-5.187381-1.380516-8.094826.899425-2.865609 3.05386-4.455291 5.898556-5.06188 1.819765-.39742 3.660452-.355587 5.459302.146418.167335.04183.46017.125501.46017.125501s-.502007 2.802859-.732091 4.057871zm20.101104-11.002269h5.396554v21.920872h-5.396554z" fill="#231f20" stroke-width=".209169"/></g></svg>